<svg width="372" height="279" viewBox="0 0 372 279" fill="none" xmlns="http://www.w3.org/2000/svg">
<path d="M232.455 279C225.922 279 220.418 276.76 215.941 272.279C211.465 267.799 209.227 262.289 209.227 255.75V23.25C209.227 16.7109 211.465 11.2012 215.941 6.7207C220.418 2.24023 225.922 0 232.455 0C257.618 0 280.905 6.23633 302.318 18.709C323.731 31.1816 340.667 48.1348 353.128 69.5684C365.588 91.002 371.818 114.312 371.818 139.5C371.818 164.688 365.588 187.998 353.128 209.432C340.667 230.865 323.731 247.818 302.318 260.291C280.905 272.764 257.618 279 232.455 279ZM162.773 279H23.4087C17.118 279 11.6741 276.699 7.07701 272.098C2.47993 267.496 0.181396 262.047 0.181396 255.75V23.25C0.181396 16.7109 2.47993 11.2012 7.07701 6.7207C11.6741 2.24023 17.118 0 23.4087 0H162.773C169.305 0 174.81 2.24023 179.286 6.7207C183.762 11.2012 186 16.7109 186 23.25V255.75C186 262.289 183.762 267.799 179.286 272.279C174.81 276.76 169.305 279 162.773 279Z" fill="#17FF90"/>
</svg>
